PathFileType   4   (X/Y/Z)
DataRate	CameraRate	NumFrames	NumMarkers	Units	OrigDataRate	OrigDataStartFrame	OrigNumFrames
120.0	120.0	11	37	mm	120.0	70	184
Frame#	Time	midhip	hip_r	hip_l	knee_r	knee_l	ankle_r	ankle_l	midasis	asis_r	asis_l	psis_r	psis_l	epicondLat_r	epicondLat_l	epicondMed_r	epicondMed_l	malleolusLat_r	malleolusLat_l	malleolusMedv_r	malleolusMedv_l	neck	subclavicle_r	subclavicle_l	sternalnotch	xyphoidprocess	thighwand_r	thighwand_l	upperleg1_r	upperleg1_l	upperleg2_r	upperleg2_l	shankwand_r	shankwand_l	lowerleg1_r	lowerleg1_l	toe_r	toe_l
 	 	X1	Y1	Z1	X2	Y2	Z2	X3	Y3	Z3	X4	Y4	Z4	X5	Y5	Z5	X6	Y6	Z6	X7	Y7	Z7	X8	Y8	Z8	X9	Y9	Z9	X10	Y10	Z10	X11	Y11	Z11	X12	Y12	Z12	X13	Y13	Z13	X14	Y14	Z14	X15	Y15	Z15	X16	Y16	Z16	X17	Y17	Z17	X18	Y18	Z18	X19	Y19	Z19	X20	Y20	Z20	X21	Y21	Z21	X22	Y22	Z22	X23	Y23	Z23	X24	Y24	Z24	X25	Y25	Z25	X26	Y26	Z26	X27	Y27	Z27	X28	Y28	Z28	X29	Y29	Z29	X30	Y30	Z30	X31	Y31	Z31	X32	Y32	Z32	X33	Y33	Z33	X34	Y34	Z34	X35	Y35	Z35	X36	Y36	Z36	X37	Y37	Z37

	70	0.78333	-690.788	734.764	232.429	-702.410	734.872	298.210	-709.924	730.900	168.172	-568.993	411.936	274.842	-790.457	426.059	198.861	-422.709	97.164	268.971	-864.030	70.327	219.248	-635.677	801.339	227.028	-629.789	804.452	328.930	-641.565	798.227	125.125	-788.828	841.724	270.953	-793.440	840.964	215.237	-567.839	408.441	329.719	-803.566	424.200	145.994	-570.886	417.488	235.608	-783.321	406.869	242.866	-435.325	90.654	303.680	-878.358	71.336	185.149	-416.654	105.168	245.875	-860.372	73.745	249.457	-781.939	1206.502	198.181	-676.397	1151.612	255.869	-669.404	1154.014	180.974	-687.357	1151.068	215.614	-656.213	1069.940	218.338	-518.322	563.302	393.124	-617.333	511.509	145.775	-609.429	583.472	366.312	-677.131	584.730	124.172	-577.710	506.265	346.974	-708.341	503.370	135.949	-506.674	179.886	378.927	-852.570	191.643	102.122	-474.327	159.375	306.310	-863.029	157.532	177.808	-328.720	104.425	305.676	-769.444	36.792	197.109
	71	0.79167	-684.873	733.913	232.578	-696.327	734.009	298.612	-703.999	730.028	168.583	-564.469	410.609	274.183	-785.307	425.307	199.110	-418.505	95.662	267.263	-863.338	70.574	219.744	-629.686	800.477	227.344	-623.673	803.597	329.263	-635.699	797.356	125.424	-782.802	840.881	271.415	-787.600	840.087	215.578	-563.029	407.052	329.049	-798.503	423.534	146.261	-567.019	416.190	234.812	-777.894	406.029	243.147	-430.880	89.163	302.061	-877.576	71.720	185.612	-412.540	103.663	244.132	-859.748	73.912	249.916	-776.070	1205.700	198.827	-670.670	1150.732	256.534	-663.529	1153.258	181.642	-681.551	1150.255	216.249	-650.414	1069.122	218.899	-512.535	561.645	392.312	-611.951	510.399	145.810	-603.854	582.228	365.986	-671.604	583.859	124.416	-572.655	504.820	346.332	-702.980	502.467	136.179	-501.599	178.441	377.808	-850.104	191.607	102.512	-469.991	157.819	304.784	-861.177	157.652	178.296	-324.374	103.124	303.535	-769.089	36.603	197.265
	72	0.80000	-678.933	733.021	232.554	-690.133	733.101	298.999	-697.990	729.156	168.980	-559.818	409.235	273.651	-780.176	424.574	199.237	-414.716	93.901	265.729	-862.662	70.861	220.115	-623.580	799.575	227.653	-617.420	802.669	329.589	-629.740	796.482	125.717	-776.618	840.036	271.927	-781.717	839.223	215.995	-558.088	405.637	328.506	-793.478	422.916	146.411	-562.903	414.748	234.177	-772.465	405.336	243.537	-426.782	87.472	300.649	-876.821	72.146	185.955	-408.881	101.865	242.533	-859.000	74.213	250.255	-770.207	1204.840	199.421	-664.891	1149.894	257.284	-657.507	1152.134	182.246	-675.644	1149.283	216.889	-644.628	1068.118	219.936	-506.602	559.896	391.528	-606.594	509.159	145.706	-598.000	580.928	365.679	-666.154	582.967	124.474	-567.360	503.312	345.783	-697.694	501.592	136.339	-496.555	176.983	376.965	-847.692	191.629	102.775	-465.899	156.127	303.502	-859.312	157.870	178.597	-320.358	101.504	301.383	-768.784	36.442	197.369
	73	0.80833	-673.397	731.980	231.620	-683.815	732.154	299.375	-691.886	728.274	169.367	-555.038	407.816	273.253	-775.114	423.861	199.282	-411.309	91.885	264.401	-862.015	71.196	220.364	-617.355	798.639	227.953	-611.026	801.681	329.903	-623.685	795.596	126.003	-770.281	839.189	272.479	-776.144	838.445	216.461	-553.017	404.201	328.097	-788.546	422.345	146.485	-558.681	413.219	233.734	-767.107	404.612	243.825	-423.022	85.574	299.461	-876.096	72.622	186.178	-405.710	99.805	241.129	-858.135	74.649	250.531	-764.317	1203.958	200.043	-659.052	1149.053	258.059	-651.436	1151.142	182.985	-669.681	1148.365	217.607	-638.697	1067.197	220.909	-500.534	558.047	390.772	-601.290	507.814	145.474	-591.902	579.591	365.467	-660.746	581.971	124.461	-561.892	501.798	345.378	-692.448	500.739	136.394	-491.607	175.494	376.384	-845.325	191.710	102.930	-462.080	154.237	302.343	-857.368	158.104	178.687	-316.693	99.531	299.223	-768.522	36.316	197.428
	74	0.81667	-668.073	730.827	230.221	-677.368	731.182	299.758	-685.688	727.382	169.764	-550.140	406.352	272.991	-770.122	423.169	199.273	-408.298	89.616	263.289	-861.384	71.584	220.496	-611.005	797.669	228.247	-604.479	800.650	330.200	-617.531	794.688	126.295	-763.789	838.339	273.062	-770.657	837.724	216.970	-547.825	402.740	327.824	-783.709	421.822	146.511	-554.144	411.682	233.390	-762.005	403.898	243.953	-419.629	83.463	298.503	-875.391	73.155	186.286	-402.953	97.517	239.950	-857.547	75.088	250.703	-758.359	1203.054	200.777	-653.074	1148.188	258.911	-645.330	1150.367	183.883	-663.631	1147.531	218.454	-632.554	1066.398	221.724	-494.334	556.096	390.045	-596.045	506.388	145.137	-585.912	578.187	365.358	-655.323	580.958	124.453	-556.300	500.229	345.055	-687.337	499.871	136.378	-486.811	173.961	376.048	-843.012	191.850	103.002	-458.604	152.144	301.393	-855.418	158.270	178.688	-313.416	97.168	297.062	-768.281	36.230	197.455
	75	0.82500	-662.891	729.647	228.367	-670.788	730.190	300.159	-679.395	726.467	170.181	-545.144	404.842	272.855	-765.192	422.507	199.229	-405.720	87.104	262.380	-860.748	72.028	220.530	-604.527	796.661	228.540	-597.776	799.581	330.480	-611.277	793.741	126.600	-757.132	837.488	273.665	-765.250	837.055	217.520	-542.533	401.250	327.675	-778.956	421.354	146.508	-549.699	409.920	233.236	-757.052	403.099	243.920	-416.647	81.143	297.755	-874.697	73.751	186.304	-400.843	94.859	238.976	-857.124	75.515	250.769	-752.326	1202.062	201.555	-646.994	1147.338	259.860	-639.209	1149.800	184.931	-657.523	1146.787	219.435	-626.195	1065.740	222.446	-488.017	554.032	389.348	-590.856	504.904	144.717	-579.745	576.672	365.280	-649.966	579.954	124.420	-550.663	498.572	344.844	-682.357	498.941	136.284	-482.217	172.368	375.928	-840.767	192.059	103.013	-455.442	149.958	300.827	-853.594	158.444	178.655	-310.548	94.389	294.934	-768.050	36.180	197.468
	76	0.83333	-657.685	728.469	226.456	-664.078	729.177	300.571	-673.004	725.529	170.613	-540.087	403.290	272.826	-760.327	421.878	199.176	-403.543	84.430	261.618	-860.112	72.533	220.493	-597.921	795.614	228.826	-590.921	798.475	330.744	-604.921	792.754	126.908	-750.330	836.637	274.275	-759.761	836.394	218.102	-537.182	399.729	327.634	-774.290	420.939	146.503	-545.492	408.010	233.251	-752.305	402.320	243.760	-414.041	78.685	297.157	-874.017	74.416	186.257	-399.417	91.813	238.168	-856.587	76.029	250.819	-746.217	1201.039	202.385	-640.918	1146.453	260.810	-632.999	1149.442	186.002	-651.366	1146.120	220.404	-619.680	1065.197	222.945	-481.614	551.846	388.687	-585.737	503.399	144.239	-573.281	575.086	365.295	-644.621	578.930	124.345	-544.971	496.855	344.765	-677.476	497.983	136.118	-477.795	170.719	375.948	-838.595	192.347	102.982	-452.620	147.675	300.568	-851.865	158.795	178.549	-308.034	91.156	292.928	-767.828	36.150	197.467
	77	0.84167	-652.145	727.344	225.037	-657.247	728.148	300.985	-666.508	724.575	171.048	-535.061	401.714	272.878	-755.522	421.274	199.142	-401.612	81.786	260.924	-859.483	73.108	220.410	-591.187	794.536	229.103	-583.924	797.337	330.994	-598.449	791.734	127.212	-743.420	835.791	274.880	-753.934	835.697	218.700	-531.870	398.190	327.672	-769.700	420.561	146.524	-541.163	406.216	233.226	-747.706	401.649	243.596	-411.644	76.267	296.633	-873.352	75.157	186.169	-398.243	88.667	237.463	-856.010	76.744	250.874	-740.024	1200.037	203.252	-634.821	1145.508	261.736	-626.661	1148.803	187.077	-645.133	1145.305	221.347	-613.254	1064.451	223.685	-475.171	549.543	388.076	-580.708	501.903	143.737	-566.767	573.507	365.458	-639.273	577.862	124.251	-539.153	495.055	344.715	-672.635	497.083	135.934	-473.409	169.098	376.006	-836.477	192.719	102.931	-450.179	145.214	300.466	-850.161	159.319	178.411	-305.690	87.465	291.182	-767.615	36.132	197.454
	78	0.85000	-646.141	726.348	224.149	-650.304	727.116	301.404	-659.897	723.597	171.490	-530.170	400.174	272.982	-750.755	420.700	199.159	-399.712	79.383	260.252	-858.854	73.754	220.300	-584.332	793.433	229.378	-576.811	796.193	331.240	-591.853	790.674	127.516	-736.428	834.954	275.481	-747.770	834.948	219.290	-526.706	396.685	327.762	-765.163	420.220	146.600	-536.714	404.388	233.155	-742.989	401.012	243.701	-409.238	74.085	296.132	-872.690	75.979	186.056	-397.235	85.619	236.743	-855.478	77.548	250.826	-733.759	1198.969	204.177	-628.636	1144.530	262.734	-620.281	1147.851	188.219	-638.841	1144.326	222.376	-606.889	1063.503	224.779	-468.747	547.164	387.545	-575.751	500.419	143.246	-560.215	571.879	365.641	-634.071	576.729	124.160	-533.263	493.092	344.640	-667.826	496.225	135.847	-468.942	167.631	376.031	-834.383	193.180	102.877	-447.943	142.686	300.384	-848.539	159.842	178.343	-303.305	83.421	289.820	-767.407	36.133	197.436
	79	0.85833	-639.389	725.583	224.117	-643.290	726.128	301.848	-653.182	722.610	171.956	-525.428	398.777	273.126	-745.997	420.177	199.242	-397.686	77.358	259.597	-858.221	74.488	220.176	-577.375	792.332	229.665	-569.620	795.090	331.501	-585.131	789.575	127.828	-729.375	834.154	276.069	-741.091	834.150	219.880	-521.730	395.304	327.891	-760.639	419.934	146.746	-532.602	402.317	233.373	-738.122	400.383	243.783	-406.695	72.260	295.640	-872.019	76.893	185.929	-396.358	82.710	235.936	-854.914	78.229	250.674	-727.450	1197.861	205.187	-622.333	1143.568	263.883	-613.835	1147.041	189.303	-632.456	1143.412	223.462	-600.323	1062.659	225.785	-462.423	544.782	387.152	-570.812	498.926	142.803	-553.546	570.230	365.814	-628.818	575.631	124.036	-527.514	491.072	344.716	-662.881	495.416	135.738	-464.379	166.374	375.992	-832.273	193.741	102.836	-445.359	140.505	299.888	-846.875	160.412	178.300	-300.755	79.174	288.904	-767.201	36.156	197.419
	80	0.86667	-631.998	724.870	225.230	-636.242	725.238	302.334	-646.369	721.638	172.462	-520.745	397.638	273.313	-741.224	419.724	199.398	-395.447	75.763	258.989	-857.578	75.331	220.048	-570.345	791.278	229.984	-562.405	794.100	331.798	-578.285	788.455	128.170	-722.309	833.433	276.612	-733.818	833.294	220.451	-516.896	394.145	328.067	-756.085	419.715	146.963	-528.833	400.251	233.992	-733.215	399.616	243.613	-403.995	70.825	295.166	-871.320	77.920	185.793	-392.542	81.393	235.291	-854.314	78.978	250.562	-721.088	1196.854	206.222	-615.933	1142.638	265.061	-607.260	1146.069	190.309	-625.960	1142.449	224.525	-593.774	1061.720	226.978	-456.282	542.480	386.964	-565.835	497.426	142.459	-546.999	568.748	366.092	-623.440	574.545	123.993	-522.036	489.242	345.061	-657.772	494.624	135.579	-459.837	165.324	375.868	-830.100	194.414	102.817	-441.624	139.197	298.995	-845.157	161.112	178.189	-297.999	74.823	288.404	-766.998	36.203	197.407
